SOURCE: DVD-R

 
http://www.imdb.com/title/tt0299547/


-SUBTITLE: No.

-SAMPLE: Yes.

-LANGUAGE: English.


DIRECTOR: Craig Lahiff 


CAST:
--------
Robert Carlyle, Charles Dance, Kerry Fox, David Ngoombujarra, Colin Friels, Ben Mendelsohn


PLOT:
-------
Based on real events, it tells the story of Max Stuart (Ngoombujarra), a young aboriginal man who was sentenced to death after being found guilty of the murder of a nine year old girl on what was considered questionable evidence. It follows the fight by his lawyers David O'Sullivan (Carlyle) and Helen Devaney (Fox) to save Stuart from execution, as well as Crown Prosecutor, Roderic Chamberlain's (Dance) efforts to convict Stuart. Rohan Rivett editor of an Adelaide paper, The News, and its publisher, Rupert Murdoch (Ben Mendelsohn) also feature as leading the public response in the campaign to save Stuart.

General
----------
Format : AVI
Format/Info : Audio Video Interleave
File size : 900 MiB
Duration : 1h 37mn
Overall bit rate : 1 291 Kbps
Writing application : VirtualDubMod 1.5.4.1 (build 2178/release)
Writing library : VirtualDubMod build 2178/release

Video
------------
Format : MPEG-4 Visual
Format profile : Advanced Simple@L5
Format settings, BVOP : 1
Format settings, QPel : No
Format settings, GMC : No warppoints
Format settings, Matrix : Custom
Codec ID : XVID
Codec ID/Hint : XviD
Duration : 1h 37mn
Bit rate : 1 156 Kbps
Width : 608 pixels
Height : 352 pixels
Display aspect ratio : 1.727
Frame rate : 25.000 fps
Color space : YUV
Chroma subsampling : 4:2:0
Bit depth : 8 bits
Scan type : Progressive
Compression mode : Lossy
Bits/(Pixel*Frame) : 0.216
Stream size : 806 MiB (90%)
Writing library : XviD 64

Audio
-----------
Format : MPEG Audio
Format version : Version 1
Format profile : Layer 3
Mode : Joint stereo
Mode extension : MS Stereo
Codec ID : 55
Codec ID/Hint : MP3
Duration : 1h 37mn
Bit rate mode : Constant
Bit rate : 128 Kbps
Channel(s) : 2 channels
Sampling rate : 48.0 KHz
Compression mode : Lossy
Stream size : 89.2 MiB (10%)
Alignment : Aligned on interleaves
Interleave, duration : 80 ms (2.00 video frames)
Interleave, preload duration : 504 ms
Writing library : LAME3.99r
Language : English